PathFileType	4	(X/Y/Z)	C:/Users/opensim2020/Desktop/walking_exp_matlab/subject06_walking18_straight_01.trc																																																																																																																																											
DataRate	CameraRate	NumFrames	NumMarkers	Units	OrigDataRate	OrigDataStartFrame	OrigNumFrames																																																																																																																																							
100	100	6	47	mm	100	1117	396																																																																																																																																							
Frame#	Time	LFHD			RFHD			LBHD			RBHD			C7			T10			CLAV			STRN			RBAK			LSHO			LUPA			LELB			LFRM			LWRA			LWRB			LFIN			RSHO			RUPA			RELB			RFRM			RWRA			RWRB			RFIN			LASI			RASI			LPSI			RPSI			LTHI			LKNE			LTIB			LANK			LHEE			LTOE			RTHI			RKNE			RTIB			RANK			RHEE			RTOE			*39			*40			*41			*42			*43			*44			*45			*46		
		X1	Y1	Z1	X2	Y2	Z2	X3	Y3	Z3	X4	Y4	Z4	X5	Y5	Z5	X6	Y6	Z6	X7	Y7	Z7	X8	Y8	Z8	X9	Y9	Z9	X10	Y10	Z10	X11	Y11	Z11	X12	Y12	Z12	X13	Y13	Z13	X14	Y14	Z14	X15	Y15	Z15	X16	Y16	Z16	X17	Y17	Z17	X18	Y18	Z18	X19	Y19	Z19	X20	Y20	Z20	X21	Y21	Z21	X22	Y22	Z22	X23	Y23	Z23	X24	Y24	Z24	X25	Y25	Z25	X26	Y26	Z26	X27	Y27	Z27	X28	Y28	Z28	X29	Y29	Z29	X30	Y30	Z30	X31	Y31	Z31	X32	Y32	Z32	X33	Y33	Z33	X34	Y34	Z34	X35	Y35	Z35	X36	Y36	Z36	X37	Y37	Z37	X38	Y38	Z38	X39	Y39	Z39	X40	Y40	Z40	X41	Y41	Z41	X42	Y42	Z42	X43	Y43	Z43	X44	Y44	Z44	X45	Y45	Z45	X46	Y46	Z46	X47	Y47	Z47
																																																																																																																																														
100	0.99	-306.94058	1659.55701	1323.18872	-309.2576	1652.31262	1454.94104	-439.58301	1603.52283	1322.17029	-440.38797	1601.41016	1451.82104	-441.85071	1450.72388	1379.75537	-485.67737	1122.64746	1395.58337	-334.4357	1370.7002	1388.16687	-300.52539	1193.66907	1384.58484	-523.52466	1282.71008	1457.65332	-377.39264	1402.09253	1224.14355	-342.72708	1203.51758	1150.599	-315.87454	1093.10901	1138.29907	-232.16664	966.13672	1134.40295	-142.01024	889.00153	1198.47498	-185.03383	857.75427	1151.73254	-113.84405	803.58081	1166.49292	-387.70453	1407.67114	1545.27539	-437.71475	1212.63794	1633.47375	-434.59375	1091.08508	1649.0271	-430.65784	971.82953	1672.23547	-385.33942	824.20618	1651.99011	-440.24509	835.69165	1688.29932	-414.6492	755.21686	1696.84338	-306.17038	955.9856	1291.82434	-306.97134	969.7887	1514.59619	-464.267	987.35706	1321.98145	-459.44006	991.48816	1490.46497	-399.63773	645.79803	1252.19958	-427.07373	484.02863	1280.15137	-507.30508	239.07103	1304.2655	-543.67401	73.01913	1355.80566	-583.31158	62.96013	1403.47949	-401.03629	41.06087	1351.63123	-308.23325	639.83429	1588.86719	-264.7168	520.91443	1563.91809	-226.46864	265.60181	1563.60754	-163.41751	88.53799	1528.3241	-186.78239	64.50443	1476.23328	-3.24342	64.54369	1542.18848	-408.88971	1698.34204	1379.50146	NaN	NaN	NaN	NaN	NaN	NaN	NaN	NaN	NaN	NaN	NaN	NaN	NaN	NaN	NaN	NaN	NaN	NaN	NaN	NaN	NaN
101	1	-301.63181	1658.98706	1324.21033	-303.93356	1651.53296	1455.93359	-434.33554	1602.92151	1323.20618	-435.03094	1600.63721	1452.82935	-436.62018	1450.00012	1380.59241	-480.32257	1121.95422	1396.17883	-329.18878	1369.95471	1388.71069	-295.14456	1192.98523	1384.84924	-518.24896	1281.90088	1458.32996	-372.29205	1401.52734	1224.84265	-337.37924	1203.00391	1151.46436	-310.23038	1092.71814	1139.22974	-225.42653	966.38812	1136.04114	-134.44168	890.57532	1200.58594	-177.15991	858.60748	1153.95288	-105.62783	805.12329	1169.15796	-382.34012	1406.74634	1546.00037	-432.7131	1211.69885	1633.94043	-429.86954	1090.16309	1649.47278	-426.12875	970.87744	1672.66052	-380.82629	823.22546	1652.63037	-435.7912	834.67743	1688.67432	-410.48444	754.1911	1697.14539	-301.06104	955.23895	1291.52319	-301.10974	968.77722	1514.39465	-459.02478	986.84167	1322.32202	-453.69495	990.81641	1490.8125	-395.74609	645.33978	1252.12561	-423.92087	483.67169	1280.10547	-506.27679	239.30493	1303.81348	-543.58942	73.46826	1355.84485	-583.40509	63.60323	1403.44995	-401.00125	40.94446	1351.57861	-302.44858	638.99115	1587.96606	-259.2215	520.5509	1562.80603	-217.51578	265.66983	1563.4104	-150.604	89.73505	1528.79468	-173.80736	66.4358	1476.67285	10.44903	65.71945	1541.87842	-403.65503	1697.65979	1380.64453	NaN	NaN	NaN	NaN	NaN	NaN	NaN	NaN	NaN	NaN	NaN	NaN	NaN	NaN	NaN	NaN	NaN	NaN	NaN	NaN	NaN
102	1.01	-296.77365	1658.26685	1325.23596	-298.55698	1650.78442	1456.98315	-428.99869	1602.26025	1324.23291	-429.66144	1599.81934	1453.90417	-431.38312	1449.35986	1381.5177	-474.81232	1121.16699	1396.69238	-323.90341	1369.23743	1389.33093	-289.79419	1192.28943	1385.24402	-512.72742	1281.01025	1459.02905	-367.17096	1401.03967	1225.56897	-332.07932	1202.52832	1152.2052	-304.60739	1092.26794	1140.20264	-218.6687	966.58972	1137.6416	-127.35642	891.93365	1202.70581	-169.47841	859.35266	1156.22595	-97.48907	806.61072	1171.84338	-376.85132	1405.82898	1546.78699	-427.56604	1210.77783	1634.43896	-425.06561	1089.25244	1649.89917	-421.3587	969.93622	1673.12366	-376.2272	822.23682	1653.11816	-431.3595	833.70795	1688.97217	-406.21643	753.28137	1697.57336	-295.8327	954.52826	1291.50757	-295.31616	967.75879	1514.36743	-453.7446	986.27814	1322.63611	-447.94873	990.04504	1491.17432	-391.90808	644.85406	1252.06311	-420.68008	483.26154	1280.1084	-505.01166	239.45555	1303.48755	-543.39832	73.88255	1355.83582	-583.42273	64.36541	1403.59473	-401.02365	40.77664	1351.51013	-296.2327	638.38605	1587.26782	-253.43005	520.47723	1561.85986	-208.88457	265.85712	1563.28088	-138.94116	90.8087	1529.34033	-162.49448	68.11208	1477.39917	22.94449	66.8596	1541.25659	-398.32861	1696.96582	1381.7594	NaN	NaN	NaN	NaN	NaN	NaN	NaN	NaN	NaN	NaN	NaN	NaN	NaN	NaN	NaN	NaN	NaN	NaN	NaN	NaN	NaN
103	1.02	-291.2843	1657.76672	1326.29138	-293.11545	1650.07178	1458.01794	-423.71716	1601.62805	1325.35315	-424.22672	1599.03967	1455.01526	-426.07288	1448.68347	1382.49109	-469.20956	1120.47913	1397.18628	-318.45432	1368.60266	1390.10767	-284.37338	1191.54541	1385.58105	-507.35855	1280.17139	1459.83643	-361.96805	1400.51807	1226.35352	-326.83624	1201.97217	1153.20081	-299.02933	1091.77539	1141.28772	-212.2534	966.7851	1139.21924	-120.04624	893.3067	1204.68115	-162.26439	860.00024	1158.53381	-89.72263	807.88312	1174.34656	-371.34555	1404.92529	1547.61487	-422.20511	1209.81494	1635.06775	-419.80988	1088.30078	1650.44373	-416.51395	969.00275	1673.53467	-371.53589	821.21869	1653.60266	-426.75305	832.88922	1689.32983	-401.72104	752.20917	1697.80261	-290.38501	953.95636	1292.00073	-289.53894	966.80988	1514.35022	-448.48737	985.74866	1322.96924	-442.27182	989.32227	1491.50867	-388.10773	644.43811	1252.08533	-417.51617	482.88013	1279.87109	-503.37024	239.57471	1303.43457	-543.30762	74.39082	1355.71899	-583.32153	64.99208	1403.45593	-401.38794	40.58395	1351.50952	-289.80692	637.9303	1586.50183	-247.1424	520.63934	1560.89661	-200.4798	266.01453	1563.21301	-128.41736	91.50301	1529.75098	-151.3651	68.56035	1477.76636	34.15686	67.89729	1540.45667	-393.06226	1696.2843	1382.98083	NaN	NaN	NaN	NaN	NaN	NaN	NaN	NaN	NaN	NaN	NaN	NaN	NaN	NaN	NaN	NaN	NaN	NaN	NaN	NaN	NaN
104	1.03	-285.94513	1657.25806	1327.40723	-287.72391	1649.38635	1459.12927	-418.47095	1601.01501	1326.56201	-418.79578	1598.30676	1456.21411	-420.30688	1448.01489	1383.31909	-463.62228	1119.78479	1397.73315	-312.98752	1367.96057	1390.83984	-278.87332	1190.88965	1386.03247	-501.75705	1279.40808	1460.66772	-356.80835	1399.9978	1227.15857	-321.53192	1201.39404	1154.18042	-293.49371	1091.21875	1142.3562	-206.11264	966.80823	1141.09888	-113.34226	894.42194	1206.81934	-154.98384	860.54767	1160.84741	-82.25865	809.04175	1177.00342	-365.75189	1404.05127	1548.48779	-416.76996	1208.85767	1635.72156	-414.72284	1087.37341	1650.88464	-411.46561	968.05945	1673.97937	-366.70303	820.23785	1653.9873	-421.9527	831.84442	1689.66003	-397.16928	751.23083	1698.15869	-285.67731	952.93518	1291.11414	-283.89859	965.83197	1514.3916	-443.18634	985.23737	1323.26489	-436.50986	988.57422	1491.82227	-383.94327	643.9809	1251.89148	-414.01965	482.45422	1279.91956	-501.98495	239.76056	1303.11169	-542.97467	74.94112	1355.46875	-583.04205	65.79095	1403.01367	-401.16577	40.45161	1351.40576	-282.97565	637.82562	1586.08594	-240.15829	521.06226	1559.78113	-192.34584	266.16916	1563.15662	-119.08621	91.85218	1529.85205	-142.18617	68.97598	1478.10217	43.89328	68.57698	1539.72144	-387.70157	1695.61926	1384.23132	NaN	NaN	NaN	NaN	NaN	NaN	NaN	NaN	NaN	NaN	NaN	NaN	NaN	NaN	NaN	NaN	NaN	NaN	NaN	NaN	NaN
105	1.04	-280.63837	1656.74353	1328.57983	-282.26617	1648.76282	1460.30762	-412.97882	1600.44495	1327.76392	-413.30243	1597.60339	1457.42773	-414.69455	1447.2843	1384.27539	-457.9061	1119.05835	1398.24365	-307.52621	1367.34009	1391.70117	-273.32751	1190.23352	1386.58545	-496.06134	1278.58594	1461.50659	-351.52643	1399.48975	1228.03345	-316.2785	1200.83606	1155.20325	-288.13498	1090.66309	1143.5116	-199.81725	966.76898	1142.59998	-106.48762	895.55688	1208.80103	-148.14386	860.95917	1163.20752	-75.2019	809.92517	1179.60583	-360.14386	1403.1842	1549.41406	-411.17868	1207.9198	1636.42761	-409.22919	1086.47754	1651.50916	-406.30966	967.09827	1674.47168	-361.70111	819.24097	1654.39734	-417.00232	830.8847	1689.98425	-392.33075	750.27417	1698.50415	-280.42877	952.28802	1291.19287	-278.22928	964.92889	1514.56201	-437.86578	984.73413	1323.62378	-430.87955	987.83588	1492.17163	-379.99615	643.57294	1252.07788	-410.51071	482.07776	1279.75049	-500.56561	240.02307	1302.61353	-542.65228	75.64096	1355.18921	-582.89301	66.8027	1402.60645	-401.21063	40.35732	1351.40906	-276.09863	637.65808	1585.48828	-232.88782	521.79279	1559.1886	-184.53346	266.17282	1563.07715	-110.91071	91.97263	1529.72217	-134.10471	69.02087	1478.05811	52.43036	68.89191	1538.95288	-382.36334	1694.9884	1385.54419	NaN	NaN	NaN	NaN	NaN	NaN	NaN	NaN	NaN	NaN	NaN	NaN	NaN	NaN	NaN	NaN	NaN	NaN	NaN	NaN	NaN
